# xmcd
#
# Track frame offsets:
#	150
#	15144
#	34088
#	49173
#	64861
#	79421
#	96018
#	120045
#	130292
#	146040
#	169825
#	183885
#	197852
#	210030
#	225745
#
# Disc length: 3191 seconds
#
# Revision: 0
# Processed by: cddbd v1.5.1PL2 Copyright (c) Steve Scherf et al.
# Submitted via: audiograbber 1.83.01
#
DISCID=be0c750f
DTITLE=Alex Harvey - The Blues
DYEAR=1964
DGENRE=Blues
TTITLE0=Trouble In Mind
TTITLE1=Honney Bee
TTITLE2=I Learned About Woman
TTITLE3=Danger Zone
TTITLE4=The Riddle Song
TTITLE5=Waltzing Mathilda
TTITLE6=Tb Blues
TTITLE7=The Big Rock Candy Mountain
TTITLE8=The Michigan Massacre
TTITLE9=No Peace
TTITLE10=Nobody Knows You When You're Down And Out
TTITLE11=St. James Infirmary
TTITLE12=Strange Fruit
TTITLE13=Kisses Sweeter Than Wine
TTITLE14=Good God Almighty
EXTD=
EXTT0=
EXTT1=
EXTT2=
EXTT3=
EXTT4=
EXTT5=
EXTT6=
EXTT7=
EXTT8=
EXTT9=
EXTT10=
EXTT11=
EXTT12=
EXTT13=
EXTT14=
PLAYORDER=
